# xmcd
#
# Track frame offsets: 
#        150
#        14056
#        27653
#        41391
#        54649
#        68437
#        81437
#        92981
#        107935
#        124164
#        138270
#        151528
#        162923
#        176348
#        194894
#        214429
#        226675
#        240470
#        255408
#        269821
#        283624
#        297121
#        310426
#        322863
#        336899
#
# Disc length: 4674 seconds
#
# Revision: 1
# Processed by: cddbd v1.5.2PL0 Copyright (c) Steve Scherf et al.
# Submitted via: ExactAudioCopyFreeDBPlugin 1.0
#
DISCID=70124019
DTITLE=Roy Eldridge - The Roy Eldrige Collection (1935-45)
DYEAR=2013
DGENRE=Jazz
TTITLE0=Eeny Meeny Miney Mo
TTITLE1=Swingin' At That Famous Door
TTITLE2=I Hope Gabriel Likes My Music
TTITLE3=Swing Is Her
TTITLE4=Blue Lou
TTITLE5=Stealin' Apples
TTITLE6=Jangled Nerves
TTITLE7=Blues In C# Minor
TTITLE8=Shoe Shine Boy
TTITLE9=Wabash Stomp
TTITLE10=Florida Stomp
TTITLE11=Where The Lazy River Goes By
TTITLE12=After You've Gone
TTITLE13=Stardust
TTITLE14=I Can't Believe That You're In Love With Me
TTITLE15=I Hear Music
TTITLE16=Let Me Off Uptown
TTITLE17=Rockin' Chair
TTITLE18=The Walls Keep talking
TTITLE19=Ball Of Fire
TTITLE20=That Drummer's Band
TTITLE21=The Gasser
TTITLE22=Minor Jive
TTITLE23=Lady Day
TTITLE24=Little Jazz
EXTD=YEAR: 2013
EXTT0=
EXTT1=
EXTT2=
EXTT3=
EXTT4=
EXTT5=
EXTT6=
EXTT7=
EXTT8=
EXTT9=
EXTT10=
EXTT11=
EXTT12=
EXTT13=
EXTT14=
EXTT15=
EXTT16=
EXTT17=
EXTT18=
EXTT19=
EXTT20=
EXTT21=
EXTT22=
EXTT23=
EXTT24=
PLAYORDER=
